<svg viewBox="-1064.5 -470 2129 940" width="2129" height="940" style="background-color: rgb(255, 255, 255);" xmlns="http://www.w3.org/2000/svg"><path d="M-205.48458418341804,-0.3229924827948169L-225.46632189193343,-3.1215508735708513M-225.46632189193343,-101.26223361715414L-225.46632189193343,-3.1215508735708513M-225.46632189193343,-3.1215508735708513L-263.2194842289517,32.818948897731055M-205.48458418341804,-98.4636752263781L-205.48458418341804,-0.3229924827948169M-205.48458418341804,-0.3229924827948169L-243.23774652043636,35.61750728850709" style="fill:none;stroke:rgb(0,0,0);stroke-width:1;stroke-linecap:round"></path><path d="M-205.48458418341806,-0.3229924827948173L-225.46632189193343,-3.121550873570845L-225.46632189193343,-101.26223361715414zM-205.48458418341806,-98.4636752263781L-205.48458418341806,-0.3229924827948173L-225.46632189193343,-101.26223361715414z" style="fill:rgb(238,238,238); fill-opacity: 0.4"></path><path d="M-214.1818008451101,-22.10999956311313L-234.1635385536255,-24.908557953889158M-234.1635385536255,-84.75435342532576L-234.1635385536255,-24.908557953889158M-234.1635385536255,-24.908557953889158L-257.18526581758084,-2.9921850662634175" style="fill:none;stroke:rgb(0,0,0);stroke-width:1;stroke-linecap:round"></path><path d="M-263.2194842289517,32.81894889773106L-225.46632189193343,-3.121550873570845L-205.48458418341806,-0.3229924827948173z" style="fill:rgb(238,238,238); fill-opacity: 0.4"></path><path d="M-90.98960069652544,8.328331037283416L-174.00670168204155,-3.298695997602965M-174.00670168204155,-75.97204553932073L-174.00670168204155,-3.298695997602965M-174.00670168204155,-3.298695997602965L-201.96298531613655,23.315307793344022M-205.48458418341804,-98.4636752263781L-225.46632189193343,-101.26223361715414M-225.46632189193343,-101.26223361715414L-263.2194842289517,-65.32173384585222M-214.18179945662465,-81.95579512105441L-214.18179945662465,-22.109999649617784M-214.18179945662465,-22.109999649617784L-237.20352738588994,-0.193626128625925M-214.18179945662465,-22.109999649617784L-188.97081927498718,-33.475414971247524M-214.1818008451101,-81.95579503454972L-214.1818008451101,-22.10999956311313M-214.1818008451101,-22.10999956311313L-237.20352810906545,-0.1936266754873832" style="fill:none;stroke:rgb(0,0,0);stroke-width:1;stroke-linecap:round"></path><path d="M-214.18180084511013,-22.109999563113124L-234.1635385536255,-24.90855795388915L-234.1635385536255,-84.75435342532577z" style="fill:rgb(153,221,255); fill-opacity: 0.4"></path><path d="M-205.48458418341804,-98.4636752263781L-243.23774652043636,-62.52317545507619" style="fill:none;stroke:rgb(0,0,0);stroke-width:1;stroke-linecap:round"></path><path d="M-243.23774652043636,35.61750728850709L-205.48458418341806,-0.3229924827948173L-205.48458418341806,-98.4636752263781z" style="fill:rgb(238,238,238); fill-opacity: 0.4"></path><path d="M-214.18180084511013,-81.95579503454974L-214.18180084511013,-22.109999563113124L-234.1635385536255,-84.75435342532577zM-257.1852658175808,-2.9921850662634113L-234.1635385536255,-24.90855795388915L-214.18180084511013,-22.109999563113124z" style="fill:rgb(153,221,255); fill-opacity: 0.4"></path><path d="M-225.46632189193343,-101.26223361715414L-225.46632189193343,-3.121550873570845L-263.2194842289517,-65.32173384585222z" style="fill:rgb(238,238,238); fill-opacity: 0.4"></path><path d="M-95.70616793670527,-7.36903444617814L-178.72326892222142,-18.996061481064523M-178.72326892222142,-46.198695786262974L-178.72326892222142,-18.996061481064523M-178.72326892222142,-18.996061481064523L-189.18769040583746,-9.034073804871007M-214.1818008451101,-81.95579503454972L-234.1635385536255,-84.75435342532576M-234.1635385536255,-84.75435342532576L-257.18526581758084,-62.83798053770001" style="fill:none;stroke:rgb(0,0,0);stroke-width:1;stroke-linecap:round"></path><path d="M-90.98960069652544,8.328331037283416L-174.00670168204155,-3.2986959976029655L-174.00670168204155,-75.97204553932075z" style="fill:rgb(238,238,238); fill-opacity: 0.4"></path><path d="M-214.18179945662465,-81.95579512105441L-237.20352738588994,-60.039421600062546M-214.18179945662465,-81.95579512105441L-188.97081927498718,-33.475414971247524M-214.1818008451101,-81.95579503454972L-237.20352810906545,-60.039422146924" style="fill:none;stroke:rgb(0,0,0);stroke-width:1;stroke-linecap:round"></path><path d="M-214.1818010254829,-22.109999588375384L-214.1818010254829,-81.955795059812L-188.97082061851714,-33.47541510238341z" style="fill:rgb(255,187,187); fill-opacity: 0.4"></path><path d="M-90.98960069652544,-64.34501850443436L-174.00670168204155,-75.97204553932073M-174.00670168204155,-75.97204553932073L-201.96298531613655,-49.35804174837375" style="fill:none;stroke:rgb(0,0,0);stroke-width:1;stroke-linecap:round"></path><path d="M-243.23774652043636,35.61750728850709L-263.2194842289517,32.81894889773106L-205.48458418341806,-0.3229924827948173z" style="fill:rgb(238,238,238); fill-opacity: 0.4"></path><path d="M-214.1818010254829,-81.955795059812L-214.1818010254829,-22.109999588375384L-237.2035282894382,-0.19362670074964436z" style="fill:rgb(255,187,187); fill-opacity: 0.4"></path><path d="M-237.20352810906545,-0.1936266754873836L-214.18180084511013,-22.109999563113124L-214.18180084511013,-81.95579503454974z" style="fill:rgb(153,221,255); fill-opacity: 0.4"></path><path d="M-90.98960069652544,-64.34501850443436L-90.98960069652544,8.328331037283416M-90.98960069652544,8.328331037283416L-118.94588433062042,34.9423348282304M-95.70616793670527,-34.5716687513766L-178.72326892222142,-46.198695786262974M-178.72326892222142,-46.198695786262974L-189.18769040583746,-36.236708110069465" style="fill:none;stroke:rgb(0,0,0);stroke-width:1;stroke-linecap:round"></path><path d="M-234.1635385536255,-84.75435342532577L-234.1635385536255,-24.90855795388915L-257.1852658175808,-62.83798053770003z" style="fill:rgb(153,221,255); fill-opacity: 0.4"></path><path d="M-201.96298531613652,23.31530779334402L-174.00670168204155,-3.2986959976029655L-90.98960069652544,8.328331037283416z" style="fill:rgb(238,238,238); fill-opacity: 0.4"></path><path d="M-95.7061679367053,-7.36903444617814L-178.7232689222214,-18.996061481064523L-178.7232689222214,-46.19869578626298zM-178.7232689222214,-46.19869578626298L-178.7232689222214,-18.996061481064523L-189.18769040583743,-36.23670811006946z" style="fill:rgb(153,221,255); fill-opacity: 0.4"></path><path d="M-243.23774652043636,-62.52317545507619L-205.48458418341806,-98.4636752263781L-225.46632189193343,-101.26223361715414zM-225.46632189193343,-3.121550873570845L-263.2194842289517,32.81894889773106L-263.2194842289517,-65.32173384585222z" style="fill:rgb(238,238,238); fill-opacity: 0.4"></path><path d="M-189.18769040583743,-9.034073804871003L-178.7232689222214,-18.996061481064523L-95.7061679367053,-7.36903444617814zM-237.20352810906545,-0.1936266754873836L-257.1852658175808,-2.9921850662634113L-214.18180084511013,-22.109999563113124z" style="fill:rgb(153,221,255); fill-opacity: 0.4"></path><path d="M-237.2035282894382,-0.19362670074964436L-214.1818010254829,-22.109999588375384L-188.97082061851714,-33.47541510238341z" style="fill:rgb(255,187,187); fill-opacity: 0.4"></path><path d="M-90.98960069652544,-64.34501850443436L-90.98960069652544,8.328331037283416L-174.00670168204155,-75.97204553932075z" style="fill:rgb(238,238,238); fill-opacity: 0.4"></path><path d="M-178.7232689222214,-18.996061481064523L-189.18769040583743,-9.034073804871003L-189.18769040583743,-36.23670811006946zM-234.1635385536255,-24.90855795388915L-257.1852658175808,-2.9921850662634113L-257.1852658175808,-62.83798053770003z" style="fill:rgb(153,221,255); fill-opacity: 0.4"></path><path d="M-174.00670168204155,-75.97204553932075L-174.00670168204155,-3.2986959976029655L-201.96298531613652,-49.35804174837375z" style="fill:rgb(238,238,238); fill-opacity: 0.4"></path><path d="M-237.20352810906545,-60.039422146924L-214.18180084511013,-81.95579503454974L-234.1635385536255,-84.75435342532577z" style="fill:rgb(153,221,255); fill-opacity: 0.4"></path><path d="M-189.18769040583746,-36.236708110069465L-189.18769040583746,-9.034073804871007M-189.18769040583746,-9.034073804871007L-106.17058942032133,2.5929532300153757" style="fill:none;stroke:rgb(0,0,0);stroke-width:1;stroke-linecap:round"></path><path d="M-95.7061679367053,-34.57166875137659L-95.7061679367053,-7.36903444617814L-178.7232689222214,-46.19869578626298z" style="fill:rgb(153,221,255); fill-opacity: 0.4"></path><path d="M-95.70616793670527,-34.5716687513766L-95.70616793670527,-7.36903444617814M-95.70616793670527,-7.36903444617814L-106.17058942032133,2.5929532300153757M-95.70616665920686,-34.57166856110061L-95.70616665920686,-7.369033391153697M-95.70616665920686,-7.369033391153697L-106.1705878101679,2.5929539683567593M-95.70616665920686,-7.369033391153697L-65.27746261152733,-10.665956973660736M43.76150320018098,23.459710235503792L-57.095078043020195,9.334160404927223M-57.095078043020195,-50.43613906731997L-57.095078043020195,9.334160404927223M-57.095078043020195,9.334160404927223L-80.08776319484103,31.222885594720143M-257.18526581758084,-62.83798053770001L-257.18526581758084,-2.9921850662634175M-257.18526581758084,-2.9921850662634175L-237.20352810906545,-0.1936266754873832M-237.20352738588994,-0.193626128625925L-188.97081927498718,-33.475414971247524M-237.20352738588994,-60.039421600062546L-188.97081927498718,-33.475414971247524" style="fill:none;stroke:rgb(0,0,0);stroke-width:1;stroke-linecap:round"></path><path d="M-214.1818010254829,-81.955795059812L-237.2035282894382,-60.03942217218626L-188.97082061851714,-33.47541510238341z" style="fill:rgb(255,187,187); fill-opacity: 0.4"></path><path d="M-263.2194842289517,-65.32173384585222L-263.2194842289517,32.818948897731055M-263.2194842289517,32.818948897731055L-243.23774652043636,35.61750728850709" style="fill:none;stroke:rgb(0,0,0);stroke-width:1;stroke-linecap:round"></path><path d="M-174.00670168204155,-3.2986959976029655L-201.96298531613652,23.31530779334402L-201.96298531613652,-49.35804174837375z" style="fill:rgb(238,238,238); fill-opacity: 0.4"></path><path d="M-189.18769040583746,-36.236708110069465L-106.17058942032133,-24.609681075183083" style="fill:none;stroke:rgb(0,0,0);stroke-width:1;stroke-linecap:round"></path><path d="M-214.1818010254829,-81.955795059812L-237.2035282894382,-0.19362670074964436L-237.2035282894382,-60.03942217218626z" style="fill:rgb(255,187,187); fill-opacity: 0.4"></path><path d="M-237.20352810906545,-60.039422146924L-237.20352810906545,-0.1936266754873836L-214.18180084511013,-81.95579503454974zM-106.17058942032136,2.592953230015379L-189.18769040583743,-9.034073804871003L-95.7061679367053,-7.36903444617814zM-189.18769040583743,-36.23670811006946L-106.17058942032136,-24.60968107518308L-178.7232689222214,-46.19869578626298z" style="fill:rgb(153,221,255); fill-opacity: 0.4"></path><path d="M-243.23774652043636,-62.52317545507619L-243.23774652043636,35.61750728850709L-205.48458418341806,-98.4636752263781z" style="fill:rgb(238,238,238); fill-opacity: 0.4"></path><path d="M-90.98960069652544,-64.34501850443436L-118.94588433062042,-37.73101471348737" style="fill:none;stroke:rgb(0,0,0);stroke-width:1;stroke-linecap:round"></path><path d="M-106.17058942032136,-24.60968107518308L-95.7061679367053,-34.57166875137659L-178.7232689222214,-46.19869578626298z" style="fill:rgb(153,221,255); fill-opacity: 0.4"></path><path d="M-237.20352810906545,-60.039422146924L-237.20352810906545,-0.1936266754873832M-237.20352738588994,-0.193626128625925L-237.20352738588994,-60.039421600062546" style="fill:none;stroke:rgb(0,0,0);stroke-width:1;stroke-linecap:round"></path><path d="M-257.1852658175808,-62.83798053770003L-237.20352810906545,-60.039422146924L-234.1635385536255,-84.75435342532577z" style="fill:rgb(153,221,255); fill-opacity: 0.4"></path><path d="M-95.70616793670527,-34.5716687513766L-106.17058942032133,-24.609681075183083M-95.70616665920686,-34.57166856110061L-106.1705878101679,-24.609681201590153M-95.70616665920686,-34.57166856110061L-65.27746261152733,-10.665956973660736" style="fill:none;stroke:rgb(0,0,0);stroke-width:1;stroke-linecap:round"></path><path d="M-95.70616820368349,-34.57166878876844L-95.70616820368349,-7.369034483569986L-106.17058968729954,2.592953192623533z" style="fill:rgb(255,187,187); fill-opacity: 0.4"></path><path d="M-106.17058942032136,2.592953230015379L-95.7061679367053,-7.36903444617814L-95.7061679367053,-34.57166875137659zM-189.18769040583743,-36.23670811006946L-189.18769040583743,-9.034073804871003L-106.17058942032136,-24.60968107518308z" style="fill:rgb(153,221,255); fill-opacity: 0.4"></path><path d="M-243.23774652043636,-62.52317545507619L-243.23774652043636,35.61750728850709" style="fill:none;stroke:rgb(0,0,0);stroke-width:1;stroke-linecap:round"></path><path d="M-118.94588433062044,34.9423348282304L-90.98960069652544,8.328331037283416L-90.98960069652544,-64.34501850443436z" style="fill:rgb(238,238,238); fill-opacity: 0.4"></path><path d="M-95.70616820368349,-7.369034483569986L-95.70616820368349,-34.57166878876844L-65.2774644751381,-10.665957240563262z" style="fill:rgb(255,187,187); fill-opacity: 0.4"></path><path d="M-257.1852658175808,-2.9921850662634113L-237.20352810906545,-0.1936266754873836L-237.20352810906545,-60.039422146924z" style="fill:rgb(153,221,255); fill-opacity: 0.4"></path><path d="M-263.2194842289517,-65.32173384585222L-243.23774652043636,-62.52317545507619L-225.46632189193343,-101.26223361715414zM-118.94588433062044,34.9423348282304L-201.96298531613652,23.31530779334402L-90.98960069652544,8.328331037283416z" style="fill:rgb(238,238,238); fill-opacity: 0.4"></path><path d="M-237.2035282894382,-60.03942217218626L-237.2035282894382,-0.19362670074964436L-188.97082061851714,-33.47541510238341z" style="fill:rgb(255,187,187); fill-opacity: 0.4"></path><path d="M-201.96298531613655,-49.35804174837375L-201.96298531613655,23.315307793344022M-201.96298531613655,23.315307793344022L-118.94588433062042,34.9423348282304" style="fill:none;stroke:rgb(0,0,0);stroke-width:1;stroke-linecap:round"></path><path d="M-189.18769040583743,-9.034073804871003L-106.17058942032136,2.592953230015379L-106.17058942032136,-24.60968107518308z" style="fill:rgb(153,221,255); fill-opacity: 0.4"></path><path d="M-106.17058968729954,2.592953192623533L-95.70616820368349,-7.369034483569986L-65.2774644751381,-10.665957240563262z" style="fill:rgb(255,187,187); fill-opacity: 0.4"></path><path d="M-257.1852658175808,-62.83798053770003L-257.1852658175808,-2.9921850662634113L-237.20352810906545,-60.039422146924z" style="fill:rgb(153,221,255); fill-opacity: 0.4"></path><path d="M-118.94588433062044,-37.73101471348737L-90.98960069652544,-64.34501850443436L-174.00670168204155,-75.97204553932075zM43.76150320018099,23.459710235503792L-57.095078043020195,9.334160404927223L-57.095078043020195,-50.43613906731997zM-263.2194842289517,32.81894889773106L-243.23774652043636,35.61750728850709L-243.23774652043636,-62.52317545507619z" style="fill:rgb(238,238,238); fill-opacity: 0.4"></path><path d="M-95.70616820368349,-34.57166878876844L-106.17058968729954,2.592953192623533L-106.17058968729954,-24.60968111257493z" style="fill:rgb(255,187,187); fill-opacity: 0.4"></path><path d="M-106.17058942032136,-24.60968107518308L-106.17058942032136,2.592953230015379L-95.7061679367053,-34.57166875137659z" style="fill:rgb(153,221,255); fill-opacity: 0.4"></path><path d="M-106.17058942032133,-24.609681075183083L-106.17058942032133,2.5929532300153757M-106.1705878101679,2.5929539683567593L-106.1705878101679,-24.609681201590153M-106.1705878101679,2.5929539683567593L-65.27746261152733,-10.665956973660736M43.76150320018098,-36.31058923674341L-57.095078043020195,-50.43613906731997M-57.095078043020195,-50.43613906731997L-80.08776319484103,-28.547413877527056M-257.18526581758084,-62.83798053770001L-237.20352810906545,-60.039422146924" style="fill:none;stroke:rgb(0,0,0);stroke-width:1;stroke-linecap:round"></path><path d="M-95.70616820368349,-34.57166878876844L-106.17058968729954,-24.60968111257493L-65.2774644751381,-10.665957240563262z" style="fill:rgb(255,187,187); fill-opacity: 0.4"></path><path d="M37.87726401784447,-0.9578000733127373L-62.97931722535671,-15.083349903889307M-62.97931722535671,-31.40493048700838L-62.97931722535671,-15.083349903889307M-62.97931722535671,-15.083349903889307L-69.25797011552633,-9.106157298173194" style="fill:none;stroke:rgb(0,0,0);stroke-width:1;stroke-linecap:round"></path><path d="M-106.17058968729954,-24.60968111257493L-106.17058968729954,2.592953192623533L-65.2774644751381,-10.665957240563262z" style="fill:rgb(255,187,187); fill-opacity: 0.4"></path><path d="M-80.08776319484105,31.222885594720143L-57.095078043020195,9.334160404927223L43.76150320018099,23.459710235503792z" style="fill:rgb(238,238,238); fill-opacity: 0.4"></path><path d="M-106.1705878101679,-24.609681201590153L-65.27746261152733,-10.665956973660736" style="fill:none;stroke:rgb(0,0,0);stroke-width:1;stroke-linecap:round"></path><path d="M-263.2194842289517,-65.32173384585222L-263.2194842289517,32.81894889773106L-243.23774652043636,-62.52317545507619zM-201.96298531613652,-49.35804174837375L-118.94588433062044,-37.73101471348737L-174.00670168204155,-75.97204553932075z" style="fill:rgb(238,238,238); fill-opacity: 0.4"></path><path d="M37.87726401784447,-17.27938065643181L-62.97931722535671,-31.40493048700838M-62.97931722535671,-31.40493048700838L-69.25797011552633,-25.427737881292266" style="fill:none;stroke:rgb(0,0,0);stroke-width:1;stroke-linecap:round"></path><path d="M-57.095078043020195,-50.43613906731997L-57.095078043020195,9.334160404927223L-80.08776319484105,-28.54741387752706z" style="fill:rgb(238,238,238); fill-opacity: 0.4"></path><path d="M-62.97931722535671,-31.404930487008386L-62.97931722535671,-15.083349903889307L-69.25797011552635,-25.42773788129227z" style="fill:rgb(153,221,255); fill-opacity: 0.4"></path><path d="M43.76150320018098,-36.31058923674341L43.76150320018098,23.459710235503792M43.76150320018098,23.459710235503792L20.76881804836014,45.34843542529671" style="fill:none;stroke:rgb(0,0,0);stroke-width:1;stroke-linecap:round"></path><path d="M-62.97931722535671,-15.083349903889307L-69.25797011552635,-9.106157298173196L-69.25797011552635,-25.42773788129227z" style="fill:rgb(153,221,255); fill-opacity: 0.4"></path><path d="M43.76150320018099,-36.31058923674341L43.76150320018099,23.459710235503792L-57.095078043020195,-50.43613906731997z" style="fill:rgb(238,238,238); fill-opacity: 0.4"></path><path d="M37.877264017844475,-0.9578000733127393L-62.97931722535671,-15.083349903889307L-62.97931722535671,-31.404930487008386z" style="fill:rgb(153,221,255); fill-opacity: 0.4"></path><path d="M-69.25797011552633,-25.427737881292266L-69.25797011552633,-9.106157298173194M-69.25797011552633,-9.106157298173194L31.598611127674832,5.019392532403372M-263.2194842289517,-65.32173384585222L-243.23774652043636,-62.52317545507619" style="fill:none;stroke:rgb(0,0,0);stroke-width:1;stroke-linecap:round"></path><path d="M-118.94588433062044,-37.73101471348737L-118.94588433062044,34.9423348282304L-90.98960069652544,-64.34501850443436z" style="fill:rgb(238,238,238); fill-opacity: 0.4"></path><path d="M-69.25797011552635,-9.106157298173196L-62.97931722535671,-15.083349903889307L37.877264017844475,-0.9578000733127393z" style="fill:rgb(153,221,255); fill-opacity: 0.4"></path><path d="M-57.095078043020195,9.334160404927223L-80.08776319484105,31.222885594720143L-80.08776319484105,-28.54741387752706z" style="fill:rgb(238,238,238); fill-opacity: 0.4"></path><path d="M-201.96298531613655,-49.35804174837375L-118.94588433062042,-37.73101471348737" style="fill:none;stroke:rgb(0,0,0);stroke-width:1;stroke-linecap:round"></path><path d="M-201.96298531613652,-49.35804174837375L-201.96298531613652,23.31530779334402L-118.94588433062044,-37.73101471348737zM-201.96298531613652,23.31530779334402L-118.94588433062044,34.9423348282304L-118.94588433062044,-37.73101471348737z" style="fill:rgb(238,238,238); fill-opacity: 0.4"></path><path d="M-118.94588433062042,-37.73101471348737L-118.94588433062042,34.9423348282304M-69.25797011552633,-25.427737881292266L31.598611127674832,-11.3021880507157" style="fill:none;stroke:rgb(0,0,0);stroke-width:1;stroke-linecap:round"></path><path d="M37.877264017844475,-17.279380656431815L37.877264017844475,-0.9578000733127393L-62.97931722535671,-31.404930487008386zM-69.25797011552635,-25.42773788129227L31.59861112767484,-11.302188050715703L-62.97931722535671,-31.404930487008386z" style="fill:rgb(153,221,255); fill-opacity: 0.4"></path><path d="M-80.08776319484103,-28.547413877527056L-80.08776319484103,31.222885594720143M-80.08776319484103,31.222885594720143L20.76881804836014,45.34843542529671M186.41268484632855,38.191021120985326L78.18144201912857,23.0326071143247M78.18144201912857,6.7110265312056265L78.18144201912857,23.0326071143247M78.18144201912857,23.0326071143247L71.90278912895894,29.00979972004081" style="fill:none;stroke:rgb(0,0,0);stroke-width:1;stroke-linecap:round"></path><path d="M-69.25797011552635,-25.42773788129227L-69.25797011552635,-9.106157298173196L31.59861112767484,-11.302188050715703z" style="fill:rgb(153,221,255); fill-opacity: 0.4"></path><path d="M185.81963097430855,39.512514614735494L77.58838814710857,24.354100608074862M77.58838814710857,-22.161486728652534L77.58838814710857,24.354100608074862M77.58838814710857,24.354100608074862L59.6945802905493,41.3887635969762M43.76150320018098,-36.31058923674341L20.76881804836014,-14.42186404695049" style="fill:none;stroke:rgb(0,0,0);stroke-width:1;stroke-linecap:round"></path><path d="M31.59861112767484,5.019392532403372L-69.25797011552635,-9.106157298173196L37.877264017844475,-0.9578000733127393z" style="fill:rgb(153,221,255); fill-opacity: 0.4"></path><path d="M20.768818048360142,45.34843542529671L-80.08776319484105,31.222885594720143L43.76150320018099,23.459710235503792z" style="fill:rgb(238,238,238); fill-opacity: 0.4"></path><path d="M31.59861112767484,-11.302188050715703L37.877264017844475,-17.279380656431815L-62.97931722535671,-31.404930487008386z" style="fill:rgb(153,221,255); fill-opacity: 0.4"></path><path d="M37.87726256385795,-17.279381739881497L37.87726256385795,-0.9578003055256671M37.87726256385795,-0.9578003055256671L31.598609632106438,5.019392339775826M37.87726256385795,-0.9578003055256671L70.56589675305538,1.3262340383667075M37.87726401784447,-17.27938065643181L37.87726401784447,-0.9578000733127373M37.87726401784447,-0.9578000733127373L31.598611127674832,5.019392532403372" style="fill:none;stroke:rgb(0,0,0);stroke-width:1;stroke-linecap:round"></path><path d="M20.768818048360142,45.34843542529671L43.76150320018099,23.459710235503792L43.76150320018099,-36.31058923674341z" style="fill:rgb(238,238,238); fill-opacity: 0.4"></path><path d="M186.41268484632855,21.869440537866247L78.18144201912857,6.7110265312056265M78.18144201912857,6.7110265312056265L71.90278912895894,12.688219136921735" style="fill:none;stroke:rgb(0,0,0);stroke-width:1;stroke-linecap:round"></path><path d="M78.18144201912857,6.711026531205621L78.18144201912857,23.0326071143247L71.90278912895893,12.688219136921733z" style="fill:rgb(153,221,255); fill-opacity: 0.4"></path><path d="M20.768818048360142,-14.42186404695049L43.76150320018099,-36.31058923674341L-57.095078043020195,-50.43613906731997z" style="fill:rgb(238,238,238); fill-opacity: 0.4"></path><path d="M-69.25797011552635,-9.106157298173196L31.59861112767484,5.019392532403372L31.59861112767484,-11.302188050715703z" style="fill:rgb(153,221,255); fill-opacity: 0.4"></path><path d="M37.87726256385795,-17.279381739881497L31.598609632106438,-11.302189094580008M37.87726256385795,-17.279381739881497L70.56589675305538,1.3262340383667075M37.87726401784447,-17.27938065643181L31.598611127674832,-11.3021880507157" style="fill:none;stroke:rgb(0,0,0);stroke-width:1;stroke-linecap:round"></path><path d="M78.18144201912857,23.0326071143247L71.90278912895893,29.00979972004081L71.90278912895893,12.688219136921733z" style="fill:rgb(153,221,255); fill-opacity: 0.4"></path><path d="M37.87726387927584,-17.27938067583916L37.87726387927584,-0.9578000927200817L31.5986109891062,5.0193925129960295z" style="fill:rgb(255,187,187); fill-opacity: 0.4"></path><path d="M31.59861112767484,5.019392532403372L37.877264017844475,-0.9578000733127393L37.877264017844475,-17.279380656431815zM186.41268484632857,38.19102112098532L78.18144201912857,23.0326071143247L78.18144201912857,6.711026531205621z" style="fill:rgb(153,221,255); fill-opacity: 0.4"></path><path d="M71.90278912895894,12.688219136921735L71.90278912895894,29.00979972004081M71.90278912895894,29.00979972004081L180.1340319561589,44.16821372670143" style="fill:none;stroke:rgb(0,0,0);stroke-width:1;stroke-linecap:round"></path><path d="M37.87726387927584,-0.9578000927200817L37.87726387927584,-17.27938067583916L70.56589467368639,1.3262337507349948z" style="fill:rgb(255,187,187); fill-opacity: 0.4"></path><path d="M-80.08776319484105,-28.54741387752706L20.768818048360142,-14.42186404695049L-57.095078043020195,-50.43613906731997z" style="fill:rgb(238,238,238); fill-opacity: 0.4"></path><path d="M71.90278912895893,29.00979972004081L78.18144201912857,23.0326071143247L186.41268484632857,38.19102112098532z" style="fill:rgb(153,221,255); fill-opacity: 0.4"></path><path d="M31.5986109891062,5.0193925129960295L37.87726387927584,-0.9578000927200817L70.56589467368639,1.3262337507349948z" style="fill:rgb(255,187,187); fill-opacity: 0.4"></path><path d="M185.81963097430855,-7.003072721991913L77.58838814710857,-22.161486728652534M77.58838814710857,-22.161486728652534L59.6945802905493,-5.126823739751209" style="fill:none;stroke:rgb(0,0,0);stroke-width:1;stroke-linecap:round"></path><path d="M37.87726387927584,-17.27938067583916L31.5986109891062,5.0193925129960295L31.5986109891062,-11.302188070123044z" style="fill:rgb(255,187,187); fill-opacity: 0.4"></path><path d="M31.59861112767484,-11.302188050715703L31.59861112767484,5.019392532403372L37.877264017844475,-17.279380656431815z" style="fill:rgb(153,221,255); fill-opacity: 0.4"></path><path d="M185.81963097430858,39.51251461473549L77.58838814710857,24.354100608074862L77.58838814710857,-22.161486728652537z" style="fill:rgb(238,238,238); fill-opacity: 0.4"></path><path d="M31.598609632106438,5.019392339775826L31.598609632106438,-11.302189094580008M31.598609632106438,5.019392339775826L70.56589675305538,1.3262340383667075M31.598611127674832,-11.3021880507157L31.598611127674832,5.019392532403372M71.90278912895894,12.688219136921735L180.1340319561589,27.84663314358236M-80.08776319484103,-28.547413877527056L20.76881804836014,-14.42186404695049" style="fill:none;stroke:rgb(0,0,0);stroke-width:1;stroke-linecap:round"></path><path d="M37.87726387927584,-17.27938067583916L31.5986109891062,-11.302188070123044L70.56589467368639,1.3262337507349948zM31.5986109891062,-11.302188070123044L31.5986109891062,5.0193925129960295L70.56589467368639,1.3262337507349948z" style="fill:rgb(255,187,187); fill-opacity: 0.4"></path><path d="M-80.08776319484105,-28.54741387752706L-80.08776319484105,31.222885594720143L20.768818048360142,-14.42186404695049z" style="fill:rgb(238,238,238); fill-opacity: 0.4"></path><path d="M31.598609632106438,-11.302189094580008L70.56589675305538,1.3262340383667075" style="fill:none;stroke:rgb(0,0,0);stroke-width:1;stroke-linecap:round"></path><path d="M77.58838814710857,-22.161486728652537L77.58838814710857,24.354100608074862L59.694580290549304,-5.126823739751212zM59.694580290549304,41.38876359697619L77.58838814710857,24.354100608074862L185.81963097430858,39.51251461473549z" style="fill:rgb(238,238,238); fill-opacity: 0.4"></path><path d="M71.90278912895893,12.688219136921733L180.1340319561589,27.846633143582356L78.18144201912857,6.711026531205621zM186.41268484632857,21.869440537866247L186.41268484632857,38.19102112098532L78.18144201912857,6.711026531205621z" style="fill:rgb(153,221,255); fill-opacity: 0.4"></path><path d="M-80.08776319484105,31.222885594720143L20.768818048360142,45.34843542529671L20.768818048360142,-14.42186404695049zM20.768818048360142,-14.42186404695049L20.768818048360142,45.34843542529671L43.76150320018099,-36.31058923674341z" style="fill:rgb(238,238,238); fill-opacity: 0.4"></path><path d="M71.90278912895893,12.688219136921733L71.90278912895893,29.00979972004081L180.1340319561589,27.846633143582356z" style="fill:rgb(153,221,255); fill-opacity: 0.4"></path><path d="M20.76881804836014,-14.42186404695049L20.76881804836014,45.34843542529671" style="fill:none;stroke:rgb(0,0,0);stroke-width:1;stroke-linecap:round"></path><path d="M180.1340319561589,44.16821372670143L71.90278912895893,29.00979972004081L186.41268484632857,38.19102112098532z" style="fill:rgb(153,221,255); fill-opacity: 0.4"></path><path d="M77.58838814710857,24.354100608074862L59.694580290549304,41.38876359697619L59.694580290549304,-5.126823739751212z" style="fill:rgb(238,238,238); fill-opacity: 0.4"></path><path d="M180.1340319561589,27.846633143582356L186.41268484632857,21.869440537866247L78.18144201912857,6.711026531205621z" style="fill:rgb(153,221,255); fill-opacity: 0.4"></path><path d="M186.41268484632855,21.869440537866247L186.41268484632855,38.191021120985326M186.41268484632855,38.191021120985326L180.1340319561589,44.16821372670143M186.41269261731426,21.869441385801345L186.41269261731426,38.19102196892042M186.41269261731426,38.19102196892042L180.13403972714462,44.16821457463653M186.41269261731426,38.19102196892042L219.64968847241855,38.113543138820184" style="fill:none;stroke:rgb(0,0,0);stroke-width:1;stroke-linecap:round"></path><path d="M185.81963097430858,-7.003072721991913L185.81963097430858,39.51251461473549L77.58838814710857,-22.161486728652537z" style="fill:rgb(238,238,238); fill-opacity: 0.4"></path><path d="M185.81963097430855,-7.003072721991913L185.81963097430855,39.512514614735494M185.81963097430855,39.512514614735494L167.92582311774927,56.54717760363682" style="fill:none;stroke:rgb(0,0,0);stroke-width:1;stroke-linecap:round"></path><path d="M71.90278912895893,29.00979972004081L180.1340319561589,44.16821372670143L180.1340319561589,27.846633143582356z" style="fill:rgb(153,221,255); fill-opacity: 0.4"></path><path d="M59.6945802905493,-5.126823739751209L59.6945802905493,41.3887635969762M59.6945802905493,41.3887635969762L167.92582311774927,56.54717760363682M186.41268484632855,21.869440537866247L180.1340319561589,27.84663314358236M186.41269261731426,21.869441385801345L180.13403972714462,27.846633991517454M186.41269261731426,21.869441385801345L219.64968847241855,38.113543138820184" style="fill:none;stroke:rgb(0,0,0);stroke-width:1;stroke-linecap:round"></path><path d="M180.1340319561589,44.16821372670143L186.41268484632857,38.19102112098532L186.41268484632857,21.869440537866247z" style="fill:rgb(153,221,255); fill-opacity: 0.4"></path><path d="M186.4126862792664,21.869440738557515L186.4126862792664,38.19102132167659L180.13403338909677,44.1682139273927zM186.4126862792664,38.19102132167659L186.4126862792664,21.869440738557515L219.64968213437075,38.11354249157636zM180.13403338909677,44.1682139273927L186.4126862792664,38.19102132167659L219.64968213437075,38.11354249157636z" style="fill:rgb(255,187,187); fill-opacity: 0.4"></path><path d="M330.4271989675735,59.76564418137989L222.1959561403735,44.60723017471928M222.1959561403735,-1.9083571620081237L222.1959561403735,44.60723017471928M222.1959561403735,44.60723017471928L204.30214828381423,61.641893163620594" style="fill:none;stroke:rgb(0,0,0);stroke-width:1;stroke-linecap:round"></path><path d="M180.1340319561589,27.846633143582356L180.1340319561589,44.16821372670143L186.41268484632857,21.869440537866247z" style="fill:rgb(153,221,255); fill-opacity: 0.4"></path><path d="M186.4126862792664,21.869440738557515L180.13403338909677,44.1682139273927L180.13403338909677,27.846633344273624z" style="fill:rgb(255,187,187); fill-opacity: 0.4"></path><path d="M180.1340319561589,27.84663314358236L180.1340319561589,44.16821372670143M180.13403972714462,44.16821457463653L180.13403972714462,27.846633991517454M180.13403972714462,44.16821457463653L219.64968847241855,38.113543138820184" style="fill:none;stroke:rgb(0,0,0);stroke-width:1;stroke-linecap:round"></path><path d="M167.92582311774927,56.54717760363681L59.694580290549304,41.38876359697619L185.81963097430858,39.51251461473549z" style="fill:rgb(238,238,238); fill-opacity: 0.4"></path><path d="M186.4126862792664,21.869440738557515L180.13403338909677,27.846633344273624L219.64968213437075,38.11354249157636z" style="fill:rgb(255,187,187); fill-opacity: 0.4"></path><path d="M331.4118663319919,40.65101178166161L223.18062350479192,25.492597775000984M223.18062350479192,9.17101719188191L223.18062350479192,25.492597775000984M223.18062350479192,25.492597775000984L216.9019706146223,31.469790380717097M185.81963097430855,-7.003072721991913L167.92582311774927,10.031590266909415" style="fill:none;stroke:rgb(0,0,0);stroke-width:1;stroke-linecap:round"></path><path d="M180.13403338909677,27.846633344273624L180.13403338909677,44.1682139273927L219.64968213437075,38.11354249157636z" style="fill:rgb(255,187,187); fill-opacity: 0.4"></path><path d="M167.92582311774927,10.031590266909413L185.81963097430858,-7.003072721991913L77.58838814710857,-22.161486728652537z" style="fill:rgb(238,238,238); fill-opacity: 0.4"></path><path d="M180.13403972714462,27.846633991517454L219.64968847241855,38.113543138820184" style="fill:none;stroke:rgb(0,0,0);stroke-width:1;stroke-linecap:round"></path><path d="M167.92582311774927,56.54717760363681L185.81963097430858,39.51251461473549L185.81963097430858,-7.003072721991913zM59.694580290549304,-5.126823739751212L167.92582311774927,10.031590266909413L77.58838814710857,-22.161486728652537z" style="fill:rgb(238,238,238); fill-opacity: 0.4"></path><path d="M59.6945802905493,-5.126823739751209L167.92582311774927,10.031590266909415M331.4118663319919,24.329431198542533L223.18062350479192,9.17101719188191M223.18062350479192,9.17101719188191L216.9019706146223,15.14820979759802" style="fill:none;stroke:rgb(0,0,0);stroke-width:1;stroke-linecap:round"></path><path d="M223.1806235047919,9.17101719188191L223.1806235047919,25.492597775000984L216.9019706146223,15.148209797598023z" style="fill:rgb(153,221,255); fill-opacity: 0.4"></path><path d="M59.694580290549304,-5.126823739751212L59.694580290549304,41.38876359697619L167.92582311774927,10.031590266909413z" style="fill:rgb(238,238,238); fill-opacity: 0.4"></path><path d="M223.1806235047919,25.492597775000984L216.9019706146223,31.469790380717097L216.9019706146223,15.148209797598023z" style="fill:rgb(153,221,255); fill-opacity: 0.4"></path><path d="M330.4271989675735,13.250056844652498L222.1959561403735,-1.9083571620081237M222.1959561403735,-1.9083571620081237L204.30214828381423,15.126305826893203" style="fill:none;stroke:rgb(0,0,0);stroke-width:1;stroke-linecap:round"></path><path d="M330.4271989675735,59.76564418137989L222.19595614037348,44.60723017471928L222.19595614037348,-1.908357162008124z" style="fill:rgb(238,238,238); fill-opacity: 0.4"></path><path d="M331.4118663319919,40.65101178166161L223.1806235047919,25.492597775000984L223.1806235047919,9.17101719188191z" style="fill:rgb(153,221,255); fill-opacity: 0.4"></path><path d="M216.9019706146223,15.14820979759802L216.9019706146223,31.469790380717097M216.9019706146223,31.469790380717097L325.13321344182225,46.628204387377714" style="fill:none;stroke:rgb(0,0,0);stroke-width:1;stroke-linecap:round"></path><path d="M216.9019706146223,31.469790380717097L223.1806235047919,25.492597775000984L331.4118663319919,40.65101178166161z" style="fill:rgb(153,221,255); fill-opacity: 0.4"></path><path d="M59.694580290549304,41.38876359697619L167.92582311774927,56.54717760363681L167.92582311774927,10.031590266909413z" style="fill:rgb(238,238,238); fill-opacity: 0.4"></path><path d="M216.9019706146223,15.14820979759802L325.13321344182225,30.306623804258646" style="fill:none;stroke:rgb(0,0,0);stroke-width:1;stroke-linecap:round"></path><path d="M222.19595614037348,-1.908357162008124L222.19595614037348,44.60723017471928L204.30214828381415,15.126305826893203zM204.30214828381415,61.641893163620594L222.19595614037348,44.60723017471928L330.4271989675735,59.76564418137989zM167.92582311774927,10.031590266909413L167.92582311774927,56.54717760363681L185.81963097430858,-7.003072721991913z" style="fill:rgb(238,238,238); fill-opacity: 0.4"></path><path d="M167.92582311774927,10.031590266909415L167.92582311774927,56.54717760363682" style="fill:none;stroke:rgb(0,0,0);stroke-width:1;stroke-linecap:round"></path><path d="M216.9019706146223,15.148209797598023L325.13321344182225,30.306623804258646L223.1806235047919,9.17101719188191zM331.4118663319919,24.329431198542533L331.4118663319919,40.65101178166161L223.1806235047919,9.17101719188191z" style="fill:rgb(153,221,255); fill-opacity: 0.4"></path><path d="M222.19595614037348,44.60723017471928L204.30214828381415,61.641893163620594L204.30214828381415,15.126305826893203z" style="fill:rgb(238,238,238); fill-opacity: 0.4"></path><path d="M216.9019706146223,15.148209797598023L216.9019706146223,31.469790380717097L325.13321344182225,30.306623804258646z" style="fill:rgb(153,221,255); fill-opacity: 0.4"></path><path d="M330.4271989675735,13.250056844652498L330.4271989675735,59.76564418137989L222.19595614037348,-1.908357162008124z" style="fill:rgb(238,238,238); fill-opacity: 0.4"></path><path d="M330.4271989675735,13.250056844652498L330.4271989675735,59.76564418137989M330.4271989675735,59.76564418137989L312.5333911110142,76.80030717028123" style="fill:none;stroke:rgb(0,0,0);stroke-width:1;stroke-linecap:round"></path><path d="M325.13321344182225,46.628204387377714L216.9019706146223,31.469790380717097L331.4118663319919,40.65101178166161zM325.13321344182225,30.306623804258646L331.4118663319919,24.329431198542533L223.1806235047919,9.17101719188191z" style="fill:rgb(153,221,255); fill-opacity: 0.4"></path><path d="M331.4118663319919,24.329431198542533L331.4118663319919,40.65101178166161M331.4118663319919,40.65101178166161L325.13321344182225,46.628204387377714M331.4118711864786,24.329431611122196L331.4118711864786,40.65101219424127M331.4118711864786,40.65101219424127L325.13321829630894,46.62820479995738M331.4118711864786,40.65101219424127L364.6488670415829,40.57353358032816M204.30214828381423,15.126305826893203L204.30214828381423,61.641893163620594M204.30214828381423,61.641893163620594L312.5333911110142,76.80030717028123" style="fill:none;stroke:rgb(0,0,0);stroke-width:1;stroke-linecap:round"></path><path d="M216.9019706146223,31.469790380717097L325.13321344182225,46.628204387377714L325.13321344182225,30.306623804258646z" style="fill:rgb(153,221,255); fill-opacity: 0.4"></path><path d="M331.4118663319919,24.329431198542533L325.13321344182225,30.306623804258646M331.4118711864786,24.329431611122196L325.13321829630894,30.30662421683831M331.4118711864786,24.329431611122196L364.6488670415829,40.57353358032816" style="fill:none;stroke:rgb(0,0,0);stroke-width:1;stroke-linecap:round"></path><path d="M325.13321344182225,46.628204387377714L331.4118663319919,40.65101178166161L331.4118663319919,24.329431198542533z" style="fill:rgb(153,221,255); fill-opacity: 0.4"></path><path d="M331.41186776492975,24.3294313992338L331.41186776492975,40.65101198235287L325.13321487476014,46.62820458806898z" style="fill:rgb(255,187,187); fill-opacity: 0.4"></path><path d="M467.66010380533294,78.98590935184163L366.80352256213183,64.86035952126507M366.80352256213183,18.344772184537675L366.80352256213183,64.86035952126507M366.80352256213183,64.86035952126507L348.9097147055726,81.8950225101664" style="fill:none;stroke:rgb(0,0,0);stroke-width:1;stroke-linecap:round"></path><path d="M331.41186776492975,40.65101198235287L331.41186776492975,24.3294313992338L364.6488636200341,40.573533152252644z" style="fill:rgb(255,187,187); fill-opacity: 0.4"></path><path d="M312.53339111101417,76.80030717028122L204.30214828381415,61.641893163620594L330.4271989675735,59.76564418137989z" style="fill:rgb(238,238,238); fill-opacity: 0.4"></path><path d="M325.13321487476014,46.62820458806898L331.41186776492975,40.65101198235287L364.6488636200341,40.573533152252644z" style="fill:rgb(255,187,187); fill-opacity: 0.4"></path><path d="M330.4271989675735,13.250056844652498L312.5333911110142,30.284719833553826" style="fill:none;stroke:rgb(0,0,0);stroke-width:1;stroke-linecap:round"></path><path d="M325.13321344182225,30.306623804258646L325.13321344182225,46.628204387377714L331.4118663319919,24.329431198542533z" style="fill:rgb(153,221,255); fill-opacity: 0.4"></path><path d="M331.41186776492975,24.3294313992338L325.13321487476014,46.62820458806898L325.13321487476014,30.30662400494991z" style="fill:rgb(255,187,187); fill-opacity: 0.4"></path><path d="M312.53339111101417,30.284719833553826L330.4271989675735,13.250056844652498L222.19595614037348,-1.908357162008124z" style="fill:rgb(238,238,238); fill-opacity: 0.4"></path><path d="M325.13321344182225,30.306623804258646L325.13321344182225,46.628204387377714M325.13321829630894,46.62820479995738L325.13321829630894,30.30662421683831M325.13321829630894,46.62820479995738L364.6488670415829,40.57353358032816" style="fill:none;stroke:rgb(0,0,0);stroke-width:1;stroke-linecap:round"></path><path d="M312.53339111101417,76.80030717028122L330.4271989675735,59.76564418137989L330.4271989675735,13.250056844652498zM204.30214828381415,15.126305826893203L312.53339111101417,30.284719833553826L222.19595614037348,-1.908357162008124z" style="fill:rgb(238,238,238); fill-opacity: 0.4"></path><path d="M331.41186776492975,24.3294313992338L325.13321487476014,30.30662400494991L364.6488636200341,40.573533152252644z" style="fill:rgb(255,187,187); fill-opacity: 0.4"></path><path d="M204.30214828381423,15.126305826893203L312.5333911110142,30.284719833553826" style="fill:none;stroke:rgb(0,0,0);stroke-width:1;stroke-linecap:round"></path><path d="M325.13321487476014,30.30662400494991L325.13321487476014,46.62820458806898L364.6488636200341,40.573533152252644z" style="fill:rgb(255,187,187); fill-opacity: 0.4"></path><path d="M325.13321829630894,30.30662421683831L364.6488670415829,40.57353358032816" style="fill:none;stroke:rgb(0,0,0);stroke-width:1;stroke-linecap:round"></path><path d="M204.30214828381415,15.126305826893203L204.30214828381415,61.641893163620594L312.53339111101417,30.284719833553826zM467.660103805333,78.98590935184163L366.80352256213183,64.86035952126507L366.80352256213183,18.344772184537675z" style="fill:rgb(238,238,238); fill-opacity: 0.4"></path><path d="M467.66010380533294,32.470322015114235L366.80352256213183,18.344772184537675M366.80352256213183,18.344772184537675L348.9097147055726,35.379435173439" style="fill:none;stroke:rgb(0,0,0);stroke-width:1;stroke-linecap:round"></path><path d="M204.30214828381415,61.641893163620594L312.53339111101417,76.80030717028122L312.53339111101417,30.284719833553826zM348.9097147055725,81.8950225101664L366.80352256213183,64.86035952126507L467.660103805333,78.98590935184163zM366.80352256213183,18.344772184537675L366.80352256213183,64.86035952126507L348.9097147055725,35.379435173439zM312.53339111101417,30.284719833553826L312.53339111101417,76.80030717028122L330.4271989675735,13.250056844652498z" style="fill:rgb(238,238,238); fill-opacity: 0.4"></path><path d="M312.5333911110142,30.284719833553826L312.5333911110142,76.80030717028123" style="fill:none;stroke:rgb(0,0,0);stroke-width:1;stroke-linecap:round"></path><path d="M366.80352256213183,64.86035952126507L348.9097147055725,81.8950225101664L348.9097147055725,35.379435173439z" style="fill:rgb(238,238,238); fill-opacity: 0.4"></path><path d="M467.66010380533294,32.470322015114235L467.66010380533294,78.98590935184163M467.66010380533294,78.98590935184163L449.7662959487737,96.02057234074297" style="fill:none;stroke:rgb(0,0,0);stroke-width:1;stroke-linecap:round"></path><path d="M467.660103805333,32.470322015114235L467.660103805333,78.98590935184163L366.80352256213183,18.344772184537675z" style="fill:rgb(238,238,238); fill-opacity: 0.4"></path><path d="M348.9097147055726,35.379435173439L348.9097147055726,81.8950225101664M348.9097147055726,81.8950225101664L449.7662959487737,96.02057234074297M516.4179257429621,138.82357179221393L503.8108530875619,137.05787806339183M503.8108530875619,-1.215275503028844L503.8108530875619,137.05787806339183M503.8108530875619,137.05787806339183L498.9752635759016,141.6612938563922" style="fill:none;stroke:rgb(0,0,0);stroke-width:1;stroke-linecap:round"></path><path d="M449.7662959487737,96.02057234074296L348.9097147055725,81.8950225101664L467.660103805333,78.98590935184163z" style="fill:rgb(238,238,238); fill-opacity: 0.4"></path><path d="M516.4179257429621,0.5504182257932346L516.4179257429621,138.82357179221393M516.4179257429621,138.82357179221393L511.5823362313017,143.42698758521428M467.66010380533294,32.470322015114235L449.7662959487737,49.504985004015566" style="fill:none;stroke:rgb(0,0,0);stroke-width:1;stroke-linecap:round"></path><path d="M498.9752635759016,141.66129385639226L503.81085308756184,137.05787806339183L516.417925742962,138.82357179221393zM449.7662959487737,96.02057234074296L467.660103805333,78.98590935184163L467.660103805333,32.470322015114235zM449.7662959487737,49.504985004015566L467.660103805333,32.470322015114235L366.80352256213183,18.344772184537675zM348.9097147055725,35.379435173439L449.7662959487737,49.504985004015566L366.80352256213183,18.344772184537675zM511.5823362313017,143.4269875852143L498.9752635759016,141.66129385639226L516.417925742962,138.82357179221393z" style="fill:rgb(238,238,238); fill-opacity: 0.4"></path><path d="M498.9752635759016,3.3881402899715547L498.9752635759016,141.6612938563922M498.9752635759016,141.6612938563922L511.5823362313017,143.42698758521428M348.9097147055726,35.379435173439L449.7662959487737,49.504985004015566M511.5823362313017,5.153834018793633L511.5823362313017,143.42698758521428M565.4013206639091,145.6839806747854L552.794248008509,143.9182869459633M552.794248008509,5.645133379542647L552.794248008509,143.9182869459633M552.794248008509,143.9182869459633L547.9586584968487,148.5217027389637" style="fill:none;stroke:rgb(0,0,0);stroke-width:1;stroke-linecap:round"></path><path d="M348.9097147055725,35.379435173439L348.9097147055725,81.8950225101664L449.7662959487737,49.504985004015566zM516.417925742962,138.82357179221393L503.81085308756184,137.05787806339183L503.81085308756184,-1.2152755030288247z" style="fill:rgb(238,238,238); fill-opacity: 0.4"></path><path d="M466.8355521638731,65.38302977843644L487.4488014673137,68.27003503497714M565.4013206639091,7.4108271083647255L565.4013206639091,145.6839806747854M565.4013206639091,145.6839806747854L560.5657311522488,150.28739646778578" style="fill:none;stroke:rgb(0,0,0);stroke-width:1;stroke-linecap:round"></path><path d="M547.9586584968487,148.5217027389637L552.794248008509,143.91828694596333L565.4013206639091,145.68398067478543zM348.9097147055725,81.8950225101664L449.7662959487737,96.02057234074296L449.7662959487737,49.504985004015566zM503.81085308756184,137.05787806339183L498.9752635759016,141.66129385639226L498.9752635759016,3.3881402899715742zM511.5823362313017,143.4269875852143L516.417925742962,138.82357179221393L516.417925742962,0.5504182257932408zM449.7662959487737,49.504985004015566L449.7662959487737,96.02057234074296L467.660103805333,32.470322015114235zM560.5657311522488,150.28739646778578L547.9586584968487,148.5217027389637L565.4013206639091,145.68398067478543z" style="fill:rgb(238,238,238); fill-opacity: 0.4"></path><path d="M547.9586584968487,10.248549172543045L547.9586584968487,148.5217027389637M547.9586584968487,148.5217027389637L560.5657311522488,150.28739646778578" style="fill:none;stroke:rgb(0,0,0);stroke-width:1;stroke-linecap:round"></path><path d="M485.7900920524071,71.2501167093618L487.4488014673136,72.80380741917688L499.5742422340433,69.96827342117756z" style="fill:rgb(0,0,0)"></path><path d="M449.7662959487737,49.504985004015566L449.7662959487737,96.02057234074297" style="fill:none;stroke:rgb(0,0,0);stroke-width:1;stroke-linecap:round"></path><path d="M488.47394022313705,63.626217864177434L486.4236627114901,65.57805431646318L499.5742422340433,69.96827342117756zM486.4236627114901,65.57805431646318L485.7900920524071,71.2501167093618L499.5742422340433,69.96827342117756z" style="fill:rgb(0,0,0)"></path><path d="M498.9752635759016,141.66129385639226L511.5823362313017,143.4269875852143L511.5823362313017,5.15383401879364z" style="fill:rgb(238,238,238); fill-opacity: 0.4"></path><path d="M560.5657311522488,12.014242901365124L560.5657311522488,150.28739646778578" style="fill:none;stroke:rgb(0,0,0);stroke-width:1;stroke-linecap:round"></path><path d="M565.4013206639091,145.68398067478543L552.794248008509,143.91828694596333L552.794248008509,5.645133379542653z" style="fill:rgb(238,238,238); fill-opacity: 0.4"></path><path d="M614.3847155848564,146.04419302053262L601.7776429294563,144.27849929171055M601.7776429294563,19.005738798938403L601.7776429294563,144.27849929171055M601.7776429294563,144.27849929171055L596.9420534177959,148.88191508471095M515.8189470848203,72.24343866100791L536.4321963882608,75.13044391754862" style="fill:none;stroke:rgb(0,0,0);stroke-width:1;stroke-linecap:round"></path><path d="M516.417925742962,0.5504182257932408L516.417925742962,138.82357179221393L503.81085308756184,-1.2152755030288247zM503.81085308756184,-1.2152755030288247L503.81085308756184,137.05787806339183L498.9752635759016,3.3881402899715742z" style="fill:rgb(238,238,238); fill-opacity: 0.4"></path><path d="M614.3847155848564,20.77143252776048L614.3847155848564,146.04419302053262M614.3847155848564,146.04419302053262L609.549126073196,150.64760881353303" style="fill:none;stroke:rgb(0,0,0);stroke-width:1;stroke-linecap:round"></path><path d="M596.9420534177958,148.88191508471095L601.7776429294562,144.27849929171057L614.3847155848564,146.04419302053265zM552.794248008509,143.91828694596333L547.9586584968487,148.5217027389637L547.9586584968487,10.248549172543052zM560.5657311522488,150.28739646778578L565.4013206639091,145.68398067478543L565.4013206639091,7.410827108364732z" style="fill:rgb(238,238,238); fill-opacity: 0.4"></path><path d="M534.7734869733542,78.1105255919333L536.4321963882606,79.66421630174837L548.5576371549905,76.82868230374905zM537.4573351440843,70.48662674674893L535.4070576324372,72.43846319903467L548.5576371549905,76.82868230374905z" style="fill:rgb(0,0,0)"></path><path d="M609.549126073196,150.64760881353303L596.9420534177958,148.88191508471095L614.3847155848564,146.04419302053265zM511.5823362313017,5.15383401879364L511.5823362313017,143.4269875852143L516.417925742962,0.5504182257932408z" style="fill:rgb(238,238,238); fill-opacity: 0.4"></path><path d="M596.9420534177959,23.6091545919388L596.9420534177959,148.88191508471095M596.9420534177959,148.88191508471095L609.549126073196,150.64760881353303" style="fill:none;stroke:rgb(0,0,0);stroke-width:1;stroke-linecap:round"></path><path d="M498.9752635759016,3.3881402899715742L498.9752635759016,141.66129385639226L511.5823362313017,5.15383401879364z" style="fill:rgb(238,238,238); fill-opacity: 0.4"></path><path d="M535.4070576324372,72.43846319903467L534.7734869733542,78.1105255919333L548.5576371549905,76.82868230374905z" style="fill:rgb(0,0,0)"></path><path d="M547.9586584968487,148.5217027389637L560.5657311522488,150.28739646778578L560.5657311522488,12.014242901365131z" style="fill:rgb(238,238,238); fill-opacity: 0.4"></path><path d="M609.549126073196,25.37484832076088L609.549126073196,150.64760881353303M516.4179257429621,0.5504182257932346L503.8108530875619,-1.215275503028844M503.8108530875619,-1.215275503028844L498.9752635759016,3.3881402899715547" style="fill:none;stroke:rgb(0,0,0);stroke-width:1;stroke-linecap:round"></path><path d="M614.3847155848564,146.04419302053265L601.7776429294562,144.27849929171057L601.7776429294562,19.00573879893841z" style="fill:rgb(238,238,238); fill-opacity: 0.4"></path><path d="M564.8023420057674,79.1038475435794L585.4155913092079,81.99085280012011" style="fill:none;stroke:rgb(0,0,0);stroke-width:1;stroke-linecap:round"></path><path d="M565.4013206639091,7.410827108364732L565.4013206639091,145.68398067478543L552.794248008509,5.645133379542653zM552.794248008509,5.645133379542653L552.794248008509,143.91828694596333L547.9586584968487,10.248549172543052z" style="fill:rgb(238,238,238); fill-opacity: 0.4"></path><path d="M516.4179257429621,0.5504182257932346L511.5823362313017,5.153834018793633" style="fill:none;stroke:rgb(0,0,0);stroke-width:1;stroke-linecap:round"></path><path d="M511.5823362313017,5.15383401879364L516.417925742962,0.5504182257932408L503.81085308756184,-1.2152755030288247zM601.7776429294562,144.27849929171057L596.9420534177958,148.88191508471095L596.9420534177958,23.609154591938807zM609.549126073196,150.64760881353303L614.3847155848564,146.04419302053265L614.3847155848564,20.77143252776049zM498.9752635759016,3.3881402899715742L511.5823362313017,5.15383401879364L503.81085308756184,-1.2152755030288247z" style="fill:rgb(238,238,238); fill-opacity: 0.4"></path><path d="M583.7568818943014,84.97093447450479L585.4155913092079,86.52462518431986L597.5410320759376,83.68909118632054zM586.4407300650314,77.34703562932042L584.3904525533844,79.29887208160616L597.5410320759376,83.68909118632054z" style="fill:rgb(0,0,0)"></path><path d="M498.9752635759016,3.3881402899715547L511.5823362313017,5.153834018793633" style="fill:none;stroke:rgb(0,0,0);stroke-width:1;stroke-linecap:round"></path><path d="M560.5657311522488,12.014242901365131L560.5657311522488,150.28739646778578L565.4013206639091,7.410827108364732zM547.9586584968487,10.248549172543052L547.9586584968487,148.5217027389637L560.5657311522488,12.014242901365131z" style="fill:rgb(238,238,238); fill-opacity: 0.4"></path><path d="M584.3904525533844,79.29887208160616L583.7568818943014,84.97093447450479L597.5410320759376,83.68909118632054z" style="fill:rgb(0,0,0)"></path><path d="M596.9420534177958,148.88191508471095L609.549126073196,150.64760881353303L609.549126073196,25.374848320760886z" style="fill:rgb(238,238,238); fill-opacity: 0.4"></path><path d="M565.4013206639091,7.4108271083647255L552.794248008509,5.645133379542647M552.794248008509,5.645133379542647L547.9586584968487,10.248549172543045" style="fill:none;stroke:rgb(0,0,0);stroke-width:1;stroke-linecap:round"></path><path d="M614.3847155848564,20.77143252776049L614.3847155848564,146.04419302053265L601.7776429294562,19.00573879893841zM601.7776429294562,19.00573879893841L601.7776429294562,144.27849929171057L596.9420534177958,23.609154591938807z" style="fill:rgb(238,238,238); fill-opacity: 0.4"></path><path d="M565.4013206639091,7.4108271083647255L560.5657311522488,12.014242901365124" style="fill:none;stroke:rgb(0,0,0);stroke-width:1;stroke-linecap:round"></path><path d="M560.5657311522488,12.014242901365131L565.4013206639091,7.410827108364732L552.794248008509,5.645133379542653zM547.9586584968487,10.248549172543052L560.5657311522488,12.014242901365131L552.794248008509,5.645133379542653zM609.549126073196,25.374848320760886L609.549126073196,150.64760881353303L614.3847155848564,20.77143252776049z" style="fill:rgb(238,238,238); fill-opacity: 0.4"></path><path d="M547.9586584968487,10.248549172543045L560.5657311522488,12.014242901365124" style="fill:none;stroke:rgb(0,0,0);stroke-width:1;stroke-linecap:round"></path><path d="M596.9420534177958,23.609154591938807L596.9420534177958,148.88191508471095L609.549126073196,25.374848320760886z" style="fill:rgb(238,238,238); fill-opacity: 0.4"></path><path d="M614.3847155848564,20.77143252776048L601.7776429294563,19.005738798938403M601.7776429294563,19.005738798938403L596.9420534177959,23.6091545919388M614.3847155848564,20.77143252776048L609.549126073196,25.37484832076088" style="fill:none;stroke:rgb(0,0,0);stroke-width:1;stroke-linecap:round"></path><path d="M609.549126073196,25.374848320760886L614.3847155848564,20.77143252776049L601.7776429294562,19.00573879893841zM596.9420534177958,23.609154591938807L609.549126073196,25.374848320760886L601.7776429294562,19.00573879893841z" style="fill:rgb(238,238,238); fill-opacity: 0.4"></path><path d="M596.9420534177959,23.6091545919388L609.549126073196,25.37484832076088" style="fill:none;stroke:rgb(0,0,0);stroke-width:1;stroke-linecap:round"></path></svg>